# xmcd
#
# Track frame offsets:
#	150
#	14224
#	29699
#	46988
#	62946
#	76581
#	89705
#	100991
#	115840
#	131348
#
# Disc length: 1967 seconds
#
# Revision: 1
# Processed by: cddbd v1.5.2PL0 Copyright (c) Steve Scherf et al.
# Submitted via: audiograbber 1.83.01
#
DISCID=8607ad0a
DTITLE=Night Beats - Myth Of A Man
DYEAR=2019
DGENRE=Soul-Pop
TTITLE0=Her Cold Cold Heart
TTITLE1=One Thing
TTITLE2=Stand With Me
TTITLE3=There She Goes
TTITLE4=Wasting Time
TTITLE5=Eyes on Me
TTITLE6=Let Me Guess
TTITLE7=Footprints
TTITLE8=I Wonder
TTITLE9=Too Young To Pray
EXTD=
EXTT0=
EXTT1=
EXTT2=
EXTT3=
EXTT4=
EXTT5=
EXTT6=
EXTT7=
EXTT8=
EXTT9=
PLAYORDER=
